<?xml version="1.0" standalone="no"?><!DOCTYPE svg PUBLIC "-//W3C//DTD SVG 1.1//EN" "http://www.w3.org/Graphics/SVG/1.1/DTD/svg11.dtd"><svg t="1496628740037" class="icon" style="" viewBox="0 0 1024 1024" version="1.1" xmlns="http://www.w3.org/2000/svg" p-id="2339" xmlns:xlink="http://www.w3.org/1999/xlink" width="128" height="128"><defs><style type="text/css"></style></defs><path d="M870.709755 308.916698c-19.583011-47.198975-47.618531-89.590458-83.32987-125.995599-35.737946-36.431747-77.366042-65.041342-123.729999-85.033675C615.610776 77.17366 564.587706 66.671469 512 66.671469c-52.587706 0-103.609753 10.503215-151.647839 31.215956-46.363957 19.992333-87.993077 48.601928-123.731022 85.033675-35.71134 36.406165-63.747883 78.796624-83.330894 125.994576-20.268626 48.850591-30.54569 100.728122-30.54569 154.189731 0 53.462632 10.277064 105.340163 30.54569 154.190755 0.51984 1.252527 1.069355 2.486634 1.600451 3.731998 0.162706 0.418532 0.339738 0.828878 0.529049 1.234107 19.466354 45.204551 46.749744 85.908602 81.201393 121.028471 35.736922 36.432771 77.366042 65.041342 123.731022 85.032652 48.030923 20.710694 99.042737 31.211862 151.621233 31.215956 0.008186 0 0.016373 0.001023 0.024559 0.001023 0.010233 0 0.021489-0.001023 0.031722-0.001023 0.479931 0 0.958838-0.007163 1.437745-0.00921 0.092098 0.001023 0.183172 0.010233 0.275269 0.010233 0.097214 0 0.193405-0.01228 0.290619-0.013303 51.869345-0.267083 102.196567-10.755971 149.615553-31.202653 46.364981-19.99131 87.993077-48.599881 123.731022-85.032652 35.710316-36.405141 63.74686-78.795601 83.32987-125.994576 20.268626-48.850591 30.544667-100.728122 30.544667-154.190755C901.253398 409.643798 890.977357 357.766266 870.709755 308.916698zM837.285504 593.96171 713.046922 593.96171c7.718799-34.811854 12.163017-71.906703 13.284561-110.965278l134.593418 0C858.864986 521.502421 850.833055 558.860261 837.285504 593.96171zM186.769754 332.113003l126.07951 0c-7.81192 34.698267-12.310374 71.839165-13.440104 111.103424L163.075099 443.216427C165.138084 404.659273 173.189458 367.254362 186.769754 332.113003zM533.630646 332.113003 671.999041 332.113003c8.44023 34.317597 13.297864 71.475891 14.508435 111.103424L533.630646 443.216427 533.630646 332.113003zM533.630646 292.611338 533.630646 126.981043c16.584724 10.243295 39.025828 26.978445 61.683874 52.671617 26.39516 29.930683 47.462988 65.744353 62.616106 106.446357 0.800225 2.149966 1.559519 4.334725 2.326998 6.512321L533.630646 292.611338zM492.109997 292.611338 365.484042 292.611338c0.578168-1.641383 1.13894-3.298116 1.736551-4.924149 14.898315-40.548508 35.641755-76.30078 61.654198-106.262162 21.893636-25.219381 45.058219-43.10268 63.235207-54.440913L492.109997 292.611338zM492.109997 332.113003l0 111.103424L339.231121 443.216427c1.210571-39.625486 6.069229-76.786851 14.509459-111.103424L492.109997 332.113003zM163.075099 482.995409l136.334062 0c1.12052 39.058574 5.565762 76.153424 13.284561 110.965278L186.715519 593.960687C173.166945 558.860261 165.135014 521.502421 163.075099 482.995409zM339.231121 482.995409l152.878876 0 0 110.965278-138.555659 0C345.227696 559.494711 340.432483 522.381441 339.231121 482.995409zM492.109997 633.741715l0 172.174338c-18.180058-12.148691-41.188074-30.934546-62.945611-56.877405-26.115797-31.138184-46.937009-67.857481-61.885466-109.137653-0.73678-2.034333-1.433652-4.101411-2.142803-6.15928L492.109997 633.741715zM533.630646 805.916053 533.630646 633.741715l126.972856 0c-0.708128 2.057869-1.404999 4.123924-2.142803 6.15928-14.948457 41.280172-35.769668 78.000492-61.885466 109.137653C574.818721 774.980483 551.810704 793.767362 533.630646 805.916053zM533.630646 593.96171 533.630646 482.995409l152.877853 0c-1.201361 39.385009-5.996574 76.498278-14.322194 110.965278L533.630646 593.960687zM726.33046 443.215404c-1.128707-39.264259-5.628184-76.405157-13.43908-111.103424l124.33989 0c13.580297 35.141358 21.63167 72.54627 23.693632 111.103424L726.33046 443.215404zM758.981091 210.777541c24.114211 24.582885 44.2539 52.134381 60.136635 81.833797L702.228529 292.611338c-2.193968-6.91141-4.530177-13.712303-7.016811-20.392446-16.859993-45.284369-40.431851-85.280292-70.060659-118.877481-14.038738-15.919575-28.109198-28.882817-41.179888-39.337937C649.800459 127.998209 710.303438 161.152307 758.981091 210.777541zM265.018909 210.777541c49.26503-50.222845 110.63782-83.590813 177.389106-97.28572-13.250792 10.5421-27.551496 23.671119-41.819454 39.850613-29.628808 33.597189-53.200666 73.593112-70.060659 118.877481-2.486634 6.680143-4.822842 13.480013-7.016811 20.392446L204.882274 292.612361C220.765009 262.911922 240.905722 235.359402 265.018909 210.777541zM265.018909 715.435319c-24.075325-24.542976-44.190455-52.0474-60.061934-81.693604l118.29215 0c2.258437 7.251148 4.672416 14.386662 7.245008 21.401426 16.819061 45.86663 40.324404 86.726224 69.864184 121.440863 11.277858 13.252839 22.574135 24.592095 33.351596 34.228569C370.329397 796.07901 312.13602 763.467265 265.018909 715.435319zM758.981091 715.435319c-46.524616 47.429219-103.852276 79.809697-166.307723 94.802156 10.583033-9.511631 21.654182-20.663622 32.706913-33.653471 29.53978-34.714639 53.046147-75.574233 69.864184-121.440863 2.572592-7.014764 4.986571-14.150278 7.245008-21.401426l116.552529 0C803.171546 663.387919 783.057439 690.89132 758.981091 715.435319z" p-id="2340" fill="#dddddd"></path></svg>