<?xml version="1.0" standalone="no"?><!DOCTYPE svg PUBLIC "-//W3C//DTD SVG 1.1//EN" "http://www.w3.org/Graphics/SVG/1.1/DTD/svg11.dtd"><svg t="1491803414791" class="icon" style="" viewBox="0 0 1024 1024" version="1.1" xmlns="http://www.w3.org/2000/svg" p-id="3232" xmlns:xlink="http://www.w3.org/1999/xlink" width="32" height="32"><defs><style type="text/css"></style></defs><path d="M511.999376 76.493794C271.132108 76.493794 75.871635 271.754267 75.871635 512.622751c0 240.867268 195.260473 436.127741 436.127741 436.127741 240.868484 0 436.128957-195.260473 436.128957-436.127741C948.128333 271.754267 752.86786 76.493794 511.999376 76.493794L511.999376 76.493794zM685.191104 642.577059c11.935659 11.94539 11.935659 31.306627 0 43.231339-11.949038 11.940524-31.300545 11.940524-43.254449 0L512.213447 556.086406l-129.731723 129.721992c-11.944173 11.940524-31.29568 11.940524-43.2508 0-11.934443-11.924712-11.934443-31.285949 0-43.231339l129.741453-129.759698L339.230924 383.094152c-11.934443-11.924712-11.934443-31.30541 0-43.244718 11.95512-11.925929 31.306627-11.925929 43.2508 0l129.731723 129.741453L641.936655 339.849434c11.953904-11.925929 31.30541-11.925929 43.254449 0 11.935659 11.944173 11.935659 31.320006 0 43.244718L555.449651 512.817361 685.191104 642.577059 685.191104 642.577059zM685.191104 642.577059" p-id="3233" fill="#515151"></path></svg>