<?xml version="1.0" standalone="no"?><!DOCTYPE svg PUBLIC "-//W3C//DTD SVG 1.1//EN" "http://www.w3.org/Graphics/SVG/1.1/DTD/svg11.dtd"><svg t="1491803630982" class="icon" style="" viewBox="0 0 1024 1024" version="1.1" xmlns="http://www.w3.org/2000/svg" p-id="4385" xmlns:xlink="http://www.w3.org/1999/xlink" width="32" height="32"><defs><style type="text/css"></style></defs><path d="M961.610044 512c0-248.322645-201.288422-449.610044-449.610044-449.610044-248.325715 0-449.610044 201.287399-449.610044 449.610044s201.284329 449.610044 449.610044 449.610044C760.321622 961.610044 961.610044 760.322645 961.610044 512zM132.640949 512c0-209.520921 169.837106-379.359051 379.359051-379.359051 209.517851 0 379.359051 169.837106 379.359051 379.359051S721.517851 891.358027 512 891.358027C302.478056 891.358027 132.640949 721.520921 132.640949 512z" p-id="4386" fill="#48a9f0"></path><path d="M455.742718 708.704011l112.403023 0 0 28.101012-112.403023 0 0-28.101012Z" p-id="4387" fill="#48a9f0"></path><path d="M455.742718 652.503011l112.403023 0 0 28.101012-112.403023 0 0-28.101012Z" p-id="4388" fill="#48a9f0"></path><path d="M455.742718 596.302011l112.403023 0 0 28.101012-112.403023 0 0-28.101012Z" p-id="4389" fill="#48a9f0"></path><path d="M624.401999 399.596977 512 287.194978 399.596977 399.596977 455.742718 399.596977 455.742718 512 568.144718 512 568.144718 399.596977Z" p-id="4390" fill="#48a9f0"></path><path d="M455.742718 540.099988l112.403023 0 0 28.101012-112.403023 0 0-28.101012Z" p-id="4391" fill="#48a9f0"></path></svg>