<?xml version="1.0" encoding="UTF-8"?>
<svg width="32px" height="32px" viewBox="0 0 32 32" version="1.1" xmlns="http://www.w3.org/2000/svg" xmlns:xlink="http://www.w3.org/1999/xlink">
    <!-- Generator: Sketch 40.1 (33804) - http://www.bohemiancoding.com/sketch -->
    <title>32</title>
    <desc>Created with Sketch.</desc>
    <defs></defs>
    <g id="Page-1" stroke="none" stroke-width="1" fill="none" fill-rule="evenodd">
        <g id="32" fill="#48A9F0">
            <path d="M15.0922346,-4.35884758e-05 L9.06961488,3.47744501 L9.06133307,3.47744501 L3.03173922,6.95842068 L2,7.55383926 L2,8.7394458 L2,15.7027048 L2,22.6655279 L2,22.7662173 L6.12695688,20.3832353 L6.12695688,15.7027048 L6.12695688,9.92548822 L11.1248115,7.03949525 L11.1226321,7.03557228 L15.0922346,4.74412611 L15.0922346,-4.35884758e-05 Z M17.155713,4.744562 L21.123572,7.03557228 L21.1213925,7.03949525 L26.1196831,9.92548822 L26.1196831,15.7027048 L26.1196831,20.1997278 L30.2462041,22.5822739 L30.2462041,7.55383926 L29.2144648,6.95842068 L23.184871,3.47744501 L23.1765892,3.47744501 L17.155713,0.0012640658 L17.155713,4.744562 Z M21.1213925,24.3663502 L21.123572,24.3698373 L16.123102,27.2562662 L11.1226321,24.3698373 L11.1248115,24.3663502 L7.23541182,22.1202361 L3.11891617,24.4971157 L9.06133307,27.9284005 L9.06961488,27.9284005 L15.0996446,31.4093762 L16.123102,32 L17.1465594,31.4093762 L23.1765892,27.9284005 L23.184871,27.9284005 L29.2144648,24.446553 L29.2907447,24.4025287 L25.174249,22.026085 L21.1213925,24.3663502 Z" id="Page-1"></path>
        </g>
    </g>
</svg>