<?xml version="1.0" encoding="UTF-8"?>
<svg width="148px" height="32px" viewBox="0 0 148 32" version="1.1" xmlns="http://www.w3.org/2000/svg" xmlns:xlink="http://www.w3.org/1999/xlink">
    <!-- Generator: Sketch 40.1 (33804) - http://www.bohemiancoding.com/sketch -->
    <title>148</title>
    <desc>Created with Sketch.</desc>
    <defs>
        <polygon id="path-1" points="27.6898754 31.620178 0 31.620178 0 15.9353092 0 0.250440356 27.6898754 0.250440356 27.6898754 31.620178"></polygon>
        <polygon id="path-3" points="14.8469555 22.2009543 14.8469555 0.219790306 0.239031454 0.219790306 0.239031454 22.2009543 14.8469555 22.2009543"></polygon>
    </defs>
    <g id="Page-1" stroke="none" stroke-width="1" fill="none" fill-rule="evenodd">
        <g id="148">
            <g id="Page-1" transform="translate(2.000000, 0.000000)">
                <polygon id="Fill-1" fill="#48A9F0" points="121.874806 27.5052392 125.72264 27.5052392 125.72264 5.58433709 121.74448 5.58433709 115.367886 14.7413697 115.038011 15.2143905 114.710699 14.7396605 108.395637 5.58433709 104.386711 5.58433709 104.386711 27.5052392 108.234545 27.5052392 108.234545 13.404349 108.234545 12.1203134 108.963518 13.1774528 115.069204 22.0285389 121.144123 13.179162 121.874806 12.1143312 121.874806 13.404349"></polygon>
                <g id="Group-14" transform="translate(0.000000, 0.176859)">
                    <path d="M100.772268,18.614457 C100.914559,17.9064214 100.985918,17.1671929 100.985918,16.398908 C100.985918,15.6438694 100.915414,14.9110504 100.774405,14.2008783 C100.632969,13.4877151 100.421455,12.798908 100.141574,12.1353116 C99.8604107,11.4691513 99.5232712,10.8410208 99.1331466,10.253911 C98.7447312,9.67064688 98.3033306,9.12840356 97.8089448,8.62931751 C97.3137045,8.12937685 96.7761614,7.68071217 96.196743,7.28460534 C95.6186065,6.88892582 94.9960309,6.54452226 94.329016,6.25096736 C93.6649923,5.95869436 92.9761852,5.73948961 92.2625947,5.59463501 C91.5490042,5.44935312 90.8029389,5.37671217 90.0256807,5.37671217 C89.2569685,5.37671217 88.5177401,5.44807122 87.8101318,5.59078932 C87.099105,5.73393472 86.4120071,5.94886647 85.7501199,6.23558457 C85.0895145,6.52144807 84.465657,6.86328783 83.8798291,7.25896736 C83.3004107,7.65165579 82.759022,8.09903858 82.2577994,8.60026113 C81.7565769,9.10148368 81.3091941,9.6441543 80.9169329,10.2261365 C80.5233899,10.8102552 80.1819774,11.4383858 79.8944047,12.1079644 C79.6064047,12.7779703 79.3906184,13.4667774 79.2483276,14.1713947 C79.1060368,14.8768665 79.0346777,15.6092582 79.0346777,16.3681424 C79.0346777,17.1364273 79.1060368,17.8756558 79.2483276,18.5836914 C79.391473,19.2947181 79.606832,19.9822433 79.8931228,20.6437033 C80.1806955,21.307727 80.5216807,21.93073 80.9152237,22.5101484 C81.3070576,23.0861484 81.7544404,23.6236914 82.2560902,24.1206409 C82.7564582,24.6163086 83.2982742,25.0598457 83.8785472,25.4503976 C84.4622386,25.8422315 85.0865234,26.182362 85.7501199,26.4695074 C86.4120071,26.7562255 87.099105,26.9711573 87.8101318,27.1143027 C88.5177401,27.2570208 89.2569685,27.3283798 90.0256807,27.3283798 C90.7939656,27.3283798 91.5331941,27.2570208 92.2412297,27.1143027 C92.9526837,26.9711573 93.6397816,26.7557982 94.3012415,26.4695074 C94.9652653,26.182362 95.5878409,25.8435134 96.1689685,25.453816 C96.7466777,25.0662552 97.2846481,24.6265638 97.7798884,24.1360237 C98.2764107,23.6442018 98.7199478,23.1105045 99.1087905,22.5374955 C99.4997697,21.9606409 99.839473,21.3389199 100.127473,20.6744688 C100.413336,20.0130089 100.629123,19.3254837 100.772268,18.614457 M96.9086243,14.4529852 C97.082108,15.1251276 97.1688499,15.7746231 97.1688499,16.398908 C97.1688499,16.8937211 97.1209923,17.3761424 97.0248499,17.8453175 C96.9291347,18.3144926 96.7851347,18.7644392 96.5958409,19.1921662 C96.4078291,19.6177567 96.1830694,20.0198457 95.9228439,20.3971513 C95.6651822,20.7723205 95.3729092,21.120997 95.0473068,21.4406172 C94.7212772,21.7606647 94.3670457,22.0486647 93.986749,22.3011988 C93.6085887,22.552451 93.2017994,22.7708012 92.7680902,22.9549674 C92.3348083,23.1391335 91.8869982,23.2788605 91.4280783,23.3711573 C90.9661674,23.4647359 90.4982742,23.5113116 90.0256807,23.5113116 C89.5411228,23.5113116 89.0646837,23.463454 88.5984997,23.3673116 C88.1344522,23.2720237 87.683651,23.128451 87.2490872,22.9383027 C86.8183691,22.7498635 86.4120071,22.5259585 86.0300012,22.2670148 C85.6445769,22.0050801 85.2903454,21.7132344 84.9698706,21.3927596 C84.6459774,21.0688665 84.3545591,20.7159169 84.0981792,20.3364748 L84.0990338,20.3356202 C83.8413721,19.9544688 83.6213128,19.5515252 83.4388558,19.1276439 C83.2546896,18.6994896 83.1153899,18.2559525 83.0226659,17.7983145 C82.9290872,17.3402493 82.8820843,16.8732107 82.8820843,16.398908 C82.8820843,16.2664451 82.8867846,16.1297092 82.8953306,15.9899822 C82.9034493,15.8609377 82.9162682,15.7327478 82.9333602,15.6066944 C82.9483157,15.4981602 82.965835,15.3810801 82.9850635,15.2588724 C83.0038647,15.1417923 83.0230932,15.0264214 83.0436036,14.9140415 L83.042749,14.9136142 C83.1085531,14.539727 83.2162326,14.1619941 83.3649329,13.7821246 C83.5106421,13.4095193 83.6977994,13.0326409 83.9255501,12.6527715 L83.926832,12.6510623 C84.1122801,12.3459703 84.3122564,12.0630979 84.5259062,11.803727 C84.7442564,11.5383739 84.9758528,11.2969496 85.2185591,11.0811632 C85.4612653,10.8658042 85.7112356,10.6683917 85.9680427,10.4897804 C86.2257045,10.3103145 86.4914849,10.1500772 86.7623929,10.0090682 C87.0294552,9.87062315 87.3007905,9.74841543 87.5759715,9.643727 C87.8434611,9.54202967 88.1173602,9.45742433 88.3938231,9.39076558 C88.9416214,9.25958457 89.4654908,9.19378042 89.9641496,9.19378042 C89.9880783,9.19378042 90.0444819,9.19719881 90.1307964,9.20318101 L90.1342148,9.20318101 L90.4264878,9.22625519 L90.428197,9.22625519 C90.5521139,9.23651039 90.6764582,9.25061128 90.7982386,9.26770326 C90.9097638,9.28351335 91.0204344,9.30402374 91.1276866,9.32795252 L91.1370872,9.32923442 C91.2144285,9.34846291 91.2977519,9.3668368 91.3849211,9.38264688 C91.4776451,9.39973887 91.5763513,9.41554896 91.6797579,9.42964985 C91.8109389,9.44759644 91.9293009,9.46938872 92.0331347,9.49374481 C92.1425234,9.51938279 92.2493484,9.55185757 92.3510457,9.58988724 C92.7826184,9.75140653 93.1821436,9.9364273 93.5479122,10.1436677 C93.9196629,10.3538991 94.2580843,10.5872047 94.5623217,10.84273 C94.8610042,11.0935549 95.1366125,11.3597626 95.388292,11.6417804 C95.6403988,11.9242255 95.8638766,12.2173531 96.0578706,12.5190267 C96.2544285,12.8241187 96.4240665,13.1386113 96.5650754,13.4590861 C96.7052297,13.7761424 96.819746,14.1085816 96.9086243,14.4529852" id="Fill-2" fill="#48A9F0"></path>
                    <polygon id="Fill-4" fill="#48A9F0" points="70.2281163 9.19390861 77.1862647 9.19390861 77.1862647 5.40760593 58.5598433 5.40760593 58.5598433 9.22467418 65.5795228 9.22467418 65.9799027 9.22467418 65.9799027 9.62505401 65.9799027 27.328508 69.8277365 27.328508 69.8277365 9.59428843 69.8277365 9.19390861"></polygon>
                    <path d="M52.4157009,11.0656095 L55.629422,9.45853531 L55.6268582,9.45426231 L55.6255763,9.45426231 C55.5418255,9.30898042 55.4755941,9.17694481 55.4277365,9.06071929 C55.1025614,8.51163917 54.7162825,8.0326362 54.2718908,7.62584688 C54.0449947,7.41860653 53.8082706,7.22375786 53.5617187,7.04172819 C53.3155941,6.86055312 53.0669056,6.69732463 52.8182172,6.55375193 C52.5678196,6.40932463 52.3122944,6.27942552 52.0529234,6.1661911 C51.7995347,6.05509318 51.5440095,5.96065994 51.2863478,5.88289139 C50.7744427,5.7286362 50.2988582,5.62095668 49.8617306,5.56156202 C49.7621697,5.56113472 49.6250065,5.55515252 49.453232,5.54489733 L49.4515228,5.54489733 L48.9742291,5.51413175 L48.971238,5.51413175 L48.7554516,5.49874896 L48.7507513,5.49874896 L48.5661579,5.48293887 L48.5631668,5.48122967 L48.4289947,5.46926528 C48.1982528,5.46926528 47.9658018,5.47781128 47.7342053,5.49490326 C47.4932083,5.51199525 47.2505021,5.53848783 47.0065139,5.57224451 C46.5193923,5.64018516 46.0523537,5.75256499 45.6053982,5.90767478 L45.599416,5.90938398 C45.4571252,5.95638694 45.3105614,6.0140724 45.1618611,6.07987656 C45.01487,6.14525341 44.8584783,6.22302196 44.6952499,6.3119003 C44.5397128,6.39693294 44.3794754,6.49264807 44.2158196,6.5981911 C44.0513092,6.70458872 43.8923537,6.81483205 43.7427988,6.92721187 C43.5885436,7.04301009 43.4368522,7.1664997 43.2907157,7.29554421 C43.1462884,7.42287953 43.0048522,7.55876083 42.867689,7.70105163 C42.7339442,7.83864214 42.6147276,7.98050564 42.5096119,8.12407834 L42.5096119,8.12578754 C42.4036415,8.27064214 42.3083537,8.42318813 42.2254576,8.58000712 L42.2190481,8.59239881 C42.1741816,8.67144926 42.1370065,8.73981721 42.109232,8.79536617 C42.0780392,8.85775193 42.0438552,8.93124748 42.0071074,9.01542552 L42.0066801,9.01499822 L41.9143834,9.22822077 L41.9143834,9.22822077 L41.8404605,9.40768665 L41.8400332,9.40768665 C41.8289234,9.43802493 41.8156772,9.4773365 41.8024309,9.52348487 C41.7891846,9.57091513 41.7785021,9.6136451 41.7720926,9.64953828 C41.7511549,9.7644819 41.7289353,9.85976973 41.7058611,9.93540178 C41.690051,10.0268439 41.6750955,10.1340961 41.6609947,10.2554493 C41.6464665,10.3840665 41.6336475,10.5225116 41.6242469,10.6677935 C41.6050184,10.9596392 41.5951905,11.1254315 41.5951905,11.164743 C41.5951905,11.6373365 41.6387751,12.1112119 41.7255169,12.5859418 C41.7686742,12.8205294 41.8289234,13.0525531 41.9041282,13.2794493 C41.9801875,13.5084819 42.0737662,13.7358053 42.1840095,13.960565 C42.2899798,14.1784878 42.4198789,14.396838 42.5724249,14.6139062 L42.5724249,14.6151881 C42.7211252,14.8284107 42.893327,15.0394967 43.0881757,15.2488736 C43.4688997,15.6582267 43.9594398,16.0278409 44.5580866,16.3560071 L44.5580866,16.3564344 L44.8610421,16.509835 L44.8636059,16.5111169 L45.1798077,16.6747727 L45.184508,16.6760546 L45.4964368,16.8418469 L45.4994279,16.844838 L45.7587988,16.9867015 C45.8211846,17.0084938 45.883143,17.0319953 45.9433923,17.0576332 L45.9433923,17.0572059 C46.0096237,17.0849804 46.0882469,17.1221555 46.1758433,17.1657401 L46.514692,17.335378 L46.5164012,17.335378 L46.8509769,17.5045887 L46.853968,17.5062979 L47.2428107,17.7062742 L47.2440926,17.7075561 L47.6483181,17.9194967 L47.6517365,17.9207786 L48.0324605,18.1246006 L48.0354516,18.1263098 L48.3896831,18.319022 L48.713149,18.495924 L48.7148582,18.495924 C48.9015881,18.598476 49.0131134,18.6565887 49.0472973,18.6676985 L49.0801994,18.6788083 L49.1019917,18.6899181 C49.7591786,19.0236392 50.2574101,19.4009448 50.5962588,19.8201258 C50.9581816,20.2679359 51.1393567,20.7597579 51.1393567,21.2943098 C51.1393567,21.5391525 51.1150006,21.7643395 51.067143,21.9698706 C51.0167217,22.1843751 50.9385258,22.3783691 50.8325555,22.5501436 L50.8334101,22.5505709 C50.7351312,22.710381 50.6201875,22.8548083 50.4898611,22.9817163 C50.3595347,23.1086243 50.2142528,23.2175858 50.0565792,23.3060368 C49.9078789,23.3893602 49.7484961,23.4598647 49.5818493,23.5162682 C49.4207573,23.5709626 49.2459917,23.6141199 49.0618255,23.6436036 C48.717422,23.6987252 48.3725911,23.726927 48.0294694,23.726927 C47.8743596,23.726927 47.7081401,23.7162445 47.5333745,23.6965887 C47.3645911,23.6773602 47.1885436,23.6478766 47.0073685,23.6098469 C46.8210659,23.5705353 46.6356178,23.5179774 46.4531608,23.4534552 C46.2689947,23.3885056 46.0878196,23.3111644 45.9109175,23.2227134 C45.7340154,23.1342623 45.5575407,23.028292 45.384057,22.9069389 C45.2169828,22.7898588 45.053327,22.6573958 44.8952261,22.5104047 L44.8935169,22.5104047 C44.7319976,22.3604226 44.5832973,22.1912119 44.4491252,22.0044819 C44.3858849,21.9160309 44.3256356,21.8241614 44.269232,21.7288736 L41.0580748,23.3470576 L41.0679027,23.3645769 L41.1713092,23.5525887 L41.1708819,23.5525887 L41.2627513,23.7111169 L41.2644605,23.714108 C41.593054,24.2939537 41.9836059,24.7909033 42.4335525,25.2028202 C42.6578849,25.407924 42.8941816,25.6010635 43.1415881,25.7809567 C43.3860036,25.9587134 43.6338374,26.1176688 43.8820985,26.2561139 C44.1354872,26.3975501 44.3914398,26.5240309 44.6491015,26.6342742 C44.9024902,26.7428083 45.1597246,26.8368142 45.4186682,26.9145828 C45.6882944,26.996197 45.942965,27.0632831 46.179689,27.1158409 C46.4223953,27.170108 46.6561282,27.2115561 46.8800332,27.2410398 L46.9065258,27.2440309 C46.9518196,27.2525769 47.0001045,27.2602682 47.0488166,27.2662504 C47.1090659,27.2730872 47.1735881,27.2794967 47.2398196,27.2837697 L47.7017306,27.3145353 C47.8393211,27.3235086 47.9696475,27.3282089 48.0910006,27.3282089 L48.2755941,27.3282089 C48.3926742,27.3282089 48.4994991,27.3260724 48.5947869,27.3222267 C48.6952024,27.318381 48.8216831,27.3102623 48.971238,27.2991525 C49.1374576,27.2871881 49.2729116,27.275651 49.3741816,27.2662504 C49.4801519,27.2564226 49.6126148,27.2418944 49.7694338,27.2239478 C49.902324,27.2089923 50.0258136,27.1906184 50.1373389,27.1705353 C50.2471549,27.1513068 50.3650896,27.1248142 50.4877246,27.094476 C50.7325674,27.0333721 50.940235,26.9744047 51.1060273,26.9192831 C51.4816237,26.7744285 51.8290184,26.6159003 52.1482113,26.4454077 C52.4622766,26.2779062 52.749422,26.0954493 53.0070837,25.9010279 C53.2651727,25.7066065 53.4959145,25.506203 53.6984546,25.3010991 C53.8988582,25.0985591 54.0757602,24.8861911 54.2278789,24.6678409 C54.379143,24.4503454 54.5094694,24.2255858 54.6162944,23.9948439 L54.6162944,23.9931347 C54.7256831,23.7576926 54.8132795,23.5162682 54.8782291,23.2709982 C55.0124012,22.7629389 55.0794872,22.2266777 55.0794872,21.6634967 C55.0794872,21.1909033 55.0354754,20.7170279 54.9487335,20.2422979 C54.9060036,20.0089923 54.8466089,19.7761139 54.7726861,19.5457994 C54.6979086,19.3137757 54.6073211,19.0851703 54.5030599,18.8616926 C54.4017899,18.6459062 54.2761638,18.4296926 54.1278908,18.21647 C53.9791905,18.0028202 53.8095525,17.7964344 53.6206861,17.5977401 C53.4305377,17.3986184 53.2121875,17.204197 52.9669175,17.0166125 C52.7186564,16.8264641 52.4421935,16.6431525 52.139238,16.4675323 L52.1268463,16.4598409 C52.0567691,16.4158291 51.9730184,16.3671169 51.8777306,16.3145591 C51.7683418,16.2543098 51.6674991,16.20047 51.5764843,16.1551763 L51.2602825,16.0026303 C51.135511,15.9432356 51.0436415,15.9000783 50.9761282,15.8705947 L50.9547632,15.8607668 L50.9338255,15.8483751 C50.8915228,15.8231644 50.8406742,15.7945353 50.7825614,15.7646243 L50.7812795,15.7646243 C50.7056475,15.7257401 50.6398433,15.692838 50.585149,15.6672 C50.4864427,15.6214789 50.4103834,15.5838766 50.3582528,15.5569567 L50.3582528,15.5565294 C50.2988582,15.5261911 50.2437365,15.4949982 50.1920332,15.4646599 C50.0228226,15.3843276 49.8074635,15.2783573 49.5442469,15.146749 C49.3207691,15.0352237 49.1019917,14.9232712 48.8917602,14.8130279 L47.598324,14.1357579 C47.5000451,14.0861911 47.4094576,14.0353424 47.3257068,13.9832119 L47.3239976,13.9815027 C47.2885318,13.9588558 47.251784,13.9374908 47.2171727,13.917835 C47.1859798,13.9003157 47.1509412,13.8819418 47.1133389,13.8631407 L47.1056475,13.8601496 C46.8385852,13.7208499 46.6065614,13.5597579 46.4112855,13.3794374 C46.2083181,13.1918528 46.0446623,12.9833306 45.9220273,12.7568617 L45.9220273,12.7551525 C45.684876,12.3158884 45.5656593,11.9082445 45.5656593,11.5343573 C45.5656593,11.2903691 45.5904427,11.0639003 45.6383003,10.8562326 C45.6887217,10.6383098 45.7660629,10.4417519 45.8686148,10.2686955 C45.9690303,10.0994849 46.0835466,9.94992997 46.2104546,9.82302196 C46.3403537,9.69312285 46.4869175,9.58245223 46.6484368,9.49186469 C46.7975644,9.40854125 46.9565199,9.3376095 47.1235941,9.28077864 C47.2846861,9.22651157 47.4594516,9.1837816 47.6436178,9.15429792 C47.9880214,9.09874896 48.3221697,9.07097448 48.6452083,9.07097448 C48.7990362,9.07097448 48.9652558,9.08080237 49.1434398,9.10088546 C49.3109412,9.11968665 49.4908344,9.14874303 49.6792736,9.1876273 C49.873695,9.22736617 50.0655525,9.28206053 50.2518552,9.35000119 C50.4428582,9.41965104 50.6274516,9.50169258 50.8034991,9.59484392 C50.982965,9.69013175 51.1577306,9.79866588 51.3260866,9.91916439 C51.490597,10.0370991 51.6525436,10.1704166 51.8114991,10.317835 L51.8110718,10.3186896 C51.9751549,10.4712356 52.1238552,10.6404463 52.2558908,10.8237579 C52.3114398,10.9015264 52.3652795,10.9822861 52.4157009,11.0656095" id="Fill-6" fill="#48A9F0"></path>
                    <g id="Group-10">
                        <mask id="mask-2" fill="white">
                            <use xlink:href="#path-1"></use>
                        </mask>
                        <g id="Clip-9"></g>
                        <path d="M0,22.5683039 L0,22.4695976 L0,15.6439122 L0,8.81822671 L0,7.65554421 L1.0114184,7.07185282 L6.92225519,3.65901009 L6.93037389,3.65901009 L12.8343739,0.250440356 L12.8343739,4.90117033 L8.94295549,7.14748487 L8.94509199,7.15133056 L4.04567359,9.9804819 L4.04567359,15.6439122 L4.04567359,20.2322564 L0,22.5683039 Z M26.7528071,24.1728142 L22.7173887,21.842749 L18.7447834,24.1369211 L18.7469199,24.1403395 L13.8449377,26.9699181 L8.94295549,24.1403395 L8.94509199,24.1369211 L5.13229674,21.9350457 L1.09645104,24.265111 L6.92225519,27.6288142 L6.93037389,27.6288142 L12.841638,31.0412297 L13.8449377,31.6202208 L14.8482374,31.0412297 L20.7595015,27.6288142 L20.7676202,27.6288142 L26.678457,24.2155442 L26.7528071,24.1728142 Z M14.8572107,0.251722255 L20.7595015,3.65901009 L20.7676202,3.65901009 L26.678457,7.07185282 L27.6898754,7.65554421 L27.6898754,8.81822671 L27.6898754,15.6439122 L27.6898754,22.3884107 L23.6446291,20.0523632 L23.6446291,15.6439122 L23.6446291,9.9804819 L18.7447834,7.15133056 L18.7469199,7.14748487 L14.8572107,4.90202493 L14.8572107,0.251722255 Z" id="Fill-8" fill="#48A9F0" mask="url(#mask-2)"></path>
                    </g>
                    <g id="Group-13" transform="translate(129.044510, 5.127596)">
                        <mask id="mask-4" fill="white">
                            <use xlink:href="#path-3"></use>
                        </mask>
                        <g id="Clip-12"></g>
                        <path d="M4.08686528,11.0958623 L7.55611157,11.0958623 C8.50172582,11.0958623 9.25291869,10.9155418 10.0276131,10.1404202 L10.0344499,10.1331561 C10.6771086,9.49135193 11.0749246,8.59701365 11.0749246,7.60525104 C11.0749246,6.61306113 10.6771086,5.71872285 10.0344499,5.07691869 L10.0276131,5.0696546 C9.49989792,4.54151217 8.80083561,4.17830742 8.01759525,4.0663549 L8.01759525,4.0659276 L4.08686528,4.07190979 L4.08686528,11.0958623 Z M8.82818279,0.378331157 C10.3177496,0.652230267 11.6530611,1.37863976 12.6871264,2.41014125 L12.6905448,2.41398694 L12.6943905,2.41740534 C14.0250018,3.75100772 14.8471264,5.58540534 14.8471264,7.60525104 C14.8471264,9.62552404 14.0250018,11.4594944 12.6943905,12.7930967 L12.6905448,12.7960878 L12.6871264,12.7999335 C11.6560522,13.8288712 10.3245864,14.5539988 8.84057448,14.8291798 C8.24833709,14.9381412 7.76591573,14.9436961 7.16385045,14.9436961 L4.08686528,14.9436961 L4.08686528,22.2009543 L0.239031454,22.2009543 L0.239031454,0.219802967 L4.08686528,0.219802967 L4.08686528,0.224075964 L7.12752997,0.219802967 C7.78386231,0.218948368 8.19107893,0.261251039 8.82818279,0.378331157 L8.82818279,0.378331157 Z" id="Fill-11" fill="#48A9F0" mask="url(#mask-4)"></path>
                    </g>
                </g>
            </g>
        </g>
    </g>
</svg>