<?xml version="1.0" standalone="no"?><!DOCTYPE svg PUBLIC "-//W3C//DTD SVG 1.1//EN" "http://www.w3.org/Graphics/SVG/1.1/DTD/svg11.dtd"><svg t="1493881582735" class="icon" style="" viewBox="0 0 1024 1024" version="1.1" xmlns="http://www.w3.org/2000/svg" p-id="2374" xmlns:xlink="http://www.w3.org/1999/xlink" width="32" height="32"><defs><style type="text/css"></style></defs><path d="M887.540621 314.257334c-10.580396-10.577916-27.718407-10.577916-38.323364 0l-337.520679 337.521177L174.174875 314.257334c-10.60598-10.577916-27.745014-10.577916-38.324387 0-10.57835 10.577916-10.57835 27.743878 0 38.321794l353.207583 353.206414c0.92306 1.339508 1.976085 2.618641 3.168286 3.811816 5.359274 5.358031 12.42754 7.990998 19.468175 7.907087 7.043705 0.083911 14.110947-2.545986 19.471245-7.907087 1.193224-1.193175 2.243179-2.474354 3.170332-3.813862l353.204513-353.204367C898.119994 342.002234 898.119994 324.83525 887.540621 314.257334z" p-id="2375" fill="#47a7ed"></path></svg>