<?xml version="1.0" standalone="no"?><!DOCTYPE svg PUBLIC "-//W3C//DTD SVG 1.1//EN" "http://www.w3.org/Graphics/SVG/1.1/DTD/svg11.dtd"><svg t="1495163646479" class="icon" style="" viewBox="0 0 1024 1024" version="1.1" xmlns="http://www.w3.org/2000/svg" p-id="1004" xmlns:xlink="http://www.w3.org/1999/xlink" width="200" height="200"><defs><style type="text/css"></style></defs><path d="M512.268258 931.5022c-231.616171 0-419.383429-187.767258-419.383429-419.383429s187.767258-419.383429 419.383429-419.383429 419.383429 187.767258 419.383429 419.383429-187.767258 419.383429-419.383429 419.383429z m244.733166-548.087862c-15.307086-15.213912-40.120946-15.213912-55.428032 0l-221.737726 220.596093-110.879613-110.250948c-15.308109-15.238485-40.120946-15.238485-55.429056 0-15.307086 15.213912-15.307086 39.887501 0 55.124962l138.582879 137.813941c15.308109 15.238485 40.120946 15.238485 55.451581 0l249.439967-248.158063c15.308109-15.213912 15.308109-39.91105 0-55.125985z" fill="#0094de" p-id="1005" class="selected"></path></svg>